:SAMPLES-PER-SECOND 30
:FULLY-SPECIFIED
:DEGREES
605
root  60.175 35.6101 82.5491 -162.723 68.8492 -177.623
LeftUpLeg  -17.4337 14.9264 0.537832
LeftLeg  6.36981 9.01624 0.42083
LeftFoot  7.68696 -0.0803685 1.19623
LeftToes  -15.242 1.61378e-006 8.80029e-008
Spine  3.89751 3.32094 -3.88992
Spine1  6.98231 7.32561 -8.38001
RightShoulder  0.0529422 2.83184 -12.5009
RightArm  -73.6057 20.714 28.4721
RightForeArm  19.3303 31.2095 6.13005
RightHand  -1.31289 -13.972 11.0486
LeftShoulder1  0.00623443 -3.21353 -2.88898
LeftArm  -32.2197 12.8579 -65.931
LeftForeArm  32.7592 -18.7977 -3.43106
LeftHand  0.0602449 1.00181 6.4679
HEad  11.65 -47.6181 2.93874
RightUpLeg  -13.2994 -20.3384 -6.34756
RightLeg  5.49924 -17.6969 -0.544167
RightFoot  17.6552 0.918291 -5.53007
RightToes  -43.8491 -0.249938 -0.335817
606
root  60.3467 35.6795 81.7103 -161.792 64.5463 -176.658
LeftUpLeg  -17.5396 13.6146 0.225739
LeftLeg  7.00495 6.40262 0.37019
LeftFoot  6.29351 -0.0373362 0.679114
LeftToes  -13.3196 1.61378e-006 8.80029e-008
Spine  3.83168 3.28775 -3.55996
Spine1  6.9542 7.17718 -7.64479
RightShoulder  0.0467676 2.99684 -12.0296
RightArm  -73.8589 17.6621 27.2859
RightForeArm  18.5184 31.757 6.26374
RightHand  -1.24244 -14.3905 10.1833
LeftShoulder1  0.00661181 -3.04275 -2.85504
LeftArm  -32.0107 12.8683 -66.6705
LeftForeArm  32.4643 -19.4818 -3.56645
LeftHand  0.0744852 1.21889 6.58617
HEad  13.2077 -48.1443 3.30105
RightUpLeg  -13.146 -19.8558 -6.70751
RightLeg  8.42498 -23.1813 -1.8573
RightFoot  18.1235 1.2852 -7.66745
RightToes  -40.073 -0.219067 -0.315534
607
root  60.5609 35.7445 80.9079 -160.991 60.4842 -175.581
LeftUpLeg  -16.7809 12.3533 0.246128
LeftLeg  6.58607 4.28555 0.216458
LeftFoot  5.32623 -0.0162791 0.367801
LeftToes  -11.2344 1.61378e-006 8.80029e-008
Spine  3.81108 3.12639 -3.28011
Spine1  7.01817 6.78234 -7.01528
RightShoulder  0.0402611 3.32881 -11.4745
RightArm  -74.1392 13.7704 26.3549
RightForeArm  14.4895 33.3958 6.67279
RightHand  -1.22344 -14.7561 9.79313
LeftShoulder1  0.00694803 -2.87428 -2.96648
LeftArm  -31.763 13.3798 -66.7802
LeftForeArm  31.8028 -20.7813 -3.82701
LeftHand  0.0770506 1.30908 6.33307
HEad  14.3018 -48.4756 3.81411
RightUpLeg  -14.2881 -18.3903 -6.38877
RightLeg  14.7145 -29.3766 -5.44307
RightFoot  16.7826 1.46599 -9.5359
RightToes  -29.0687 -0.137561 -0.245442
608
root  60.8288 35.7999 80.1554 -160.959 55.966 -175.312
LeftUpLeg  -15.7534 10.2656 0.306099
LeftLeg  5.83811 2.66877 0.0997793
LeftFoot  4.77125 -0.00782532 0.193431
LeftToes  -9.26916 1.61378e-006 8.80029e-008
Spine  3.80595 2.51176 -3.09641
Spine1  7.15281 5.47074 -6.54651
RightShoulder  0.0314351 3.15665 -10.5607
RightArm  -74.1955 11.098 25.8535
RightForeArm  11.0993 35.8139 7.3066
RightHand  -1.27009 -15.054 9.95594
LeftShoulder1  0.00723589 -2.9234 -3.2059
LeftArm  -31.4145 14.2946 -66.1074
LeftForeArm  31.2394 -21.8016 -4.03489
LeftHand  0.0767384 1.33774 6.164
HEad  15.1225 -48.4267 3.9129
RightUpLeg  -17.2109 -20.4444 -5.07008
RightLeg  24.3945 -26.0239 -9.40474
RightFoot  11.5568 0.647337 -6.01244
RightToes  -22.3422 -0.094897 -0.195383
609
root  61.1174 35.8386 79.4346 -161.273 51.2158 -175.263
LeftUpLeg  -14.8622 7.70524 0.57801
LeftLeg  5.8855 1.10547 0.0418599
LeftFoot  4.01259 -0.0018174 0.0518711
LeftToes  -8.00757 1.61378e-006 8.80029e-008
Spine  3.92463 1.62348 -2.87878
Spine1  7.50405 3.65247 -6.08721
RightShoulder  0.0264539 2.7369 -9.78691
RightArm  -72.8621 9.5594 25.9887
RightForeArm  11.2246 39.8189 8.45449
RightHand  -1.19918 -15.3353 9.25575
LeftShoulder1  0.00746819 -2.95655 -3.56212
LeftArm  -31.2389 14.955 -65.0438
LeftForeArm  31.2948 -22.2058 -4.11792
LeftHand  0.0722275 1.25721 6.17178
HEad  15.6102 -48.1887 3.70889
RightUpLeg  -20.4895 -22.7682 -3.03675
RightLeg  31.6027 -15.9953 -8.30906
RightFoot  4.8892 0.0837758 -1.58435
RightToes  -13.2225 -0.0469844 -0.120224
